HIERARCHY
ROOT Hips
{
	OFFSET	0	0	0
	CHANNELS 6  Xposition Yposition Zposition Xrotation Yrotation Zrotation
	JOINT Spine
	{
		OFFSET	0	7.07069	1.42098
		CHANNELS 3  Xrotation Yrotation Zrotation
		JOINT Spine1
		{
			OFFSET	0	12.118	-2.16393
			CHANNELS 3  Xrotation Yrotation Zrotation
			JOINT Spine2
			{
				OFFSET	0	9.18588	0.984588
				CHANNELS 3  Xrotation Yrotation Zrotation
				JOINT Spine3
				{
					OFFSET	0	10.9928	3.26753
					CHANNELS 3  Xrotation Yrotation Zrotation
					JOINT Spine4
					{
						OFFSET	0	16.2728	-1.66623
						CHANNELS 3  Xrotation Yrotation Zrotation
						JOINT Neck
						{
							OFFSET	0	7.76851	-5.44228
							CHANNELS 3  Xrotation Yrotation Zrotation
							JOINT Head
							{
								OFFSET	0	9.32654	-2.79147
								CHANNELS 3  Xrotation Yrotation Zrotation
								End Site
								{
									OFFSET	0	19.4537	-0.941309
								}
							}
						}
					}
					JOINT LeftShoulder
					{
						OFFSET	-4.67409	19.7783	-9.32654
						CHANNELS 3  Xrotation Yrotation Zrotation
						JOINT LeftArm
						{
							OFFSET	-10.1845	-2.79147	3.58132
							CHANNELS 3  Xrotation Yrotation Zrotation
							JOINT LeftForeArm
							{
								OFFSET	-31.5067	-1.43802	2.24891
								CHANNELS 3  Xrotation Yrotation Zrotation
								JOINT LeftHand
								{
									OFFSET	-25.4342	-1.75765	1.81547
									CHANNELS 3  Xrotation Yrotation Zrotation
									End Site
									{
										OFFSET	-9.28223	-0.641455	0.662512
									}
								}
							}
						}
					}
					JOINT RightShoulder
					{
						OFFSET	4.67409	19.7783	-9.32654
						CHANNELS 3  Xrotation Yrotation Zrotation
						JOINT RightArm
						{
							OFFSET	10.1845	-2.79147	3.58132
							CHANNELS 3  Xrotation Yrotation Zrotation
							JOINT RightForeArm
							{
								OFFSET	31.5067	-1.43802	2.24891
								CHANNELS 3  Xrotation Yrotation Zrotation
								JOINT RightHand
								{
									OFFSET	25.4342	-1.75765	1.81547
									CHANNELS 3  Xrotation Yrotation Zrotation
									End Site
									{
										OFFSET	9.28223	-0.641455	0.662512
									}
								}
							}
						}
					}
				}
			}
		}
	}
	JOINT LeftUpLeg
	{
		OFFSET	-9.61129	-3.53534	-0.71049
		CHANNELS 3  Xrotation Yrotation Zrotation
		JOINT LeftLeg
		{
			OFFSET	-2.18601	-42.8339	-0.669588
			CHANNELS 3  Xrotation Yrotation Zrotation
			JOINT LeftFoot
			{
				OFFSET	-2.13734	-39.398	3.38822
				CHANNELS 3  Xrotation Yrotation Zrotation
				JOINT LeftToeBase
				{
					OFFSET	0	-4.79061	-12.7239
					CHANNELS 3  Xrotation Yrotation Zrotation
					End Site
					{
						OFFSET	0	-1.91625	-7.66498
					}
				}
			}
		}
	}
	JOINT RightUpLeg
	{
		OFFSET	9.61129	-3.53534	-0.71049
		CHANNELS 3  Xrotation Yrotation Zrotation
		JOINT RightLeg
		{
			OFFSET	2.18601	-42.8339	-0.669588
			CHANNELS 3  Xrotation Yrotation Zrotation
			JOINT RightFoot
			{
				OFFSET	2.13734	-39.398	3.38822
				CHANNELS 3  Xrotation Yrotation Zrotation
				JOINT RightToeBase
				{
					OFFSET	0	-4.79061	-12.7239
					CHANNELS 3  Xrotation Yrotation Zrotation
					End Site
					{
						OFFSET	0	-1.91625	-7.66498
					}
				}
			}
		}
	}
}
MOTION
Frames: 10
Frame Time: 0.020408
 -145.426 79.8822 -290.582 12.0226 -145.235 0.287792 180 -179.995 176.191 168.686 -179.989 173.652 168.261 -179.967 173.652 171.189 -179.995 176.191 179.19 179.982 178.73 8.45849 -2.32428 5.05177 2.57739 -10.0364 1.04347 1.45176 -25.8716 3.15341 147.016 -127.985 -176.038 120.064 -139.119 129.101 -0 1.12997 -1.08887 1.08424 10.709 -2.25632 15.6941 24.8122 -36.555 160.256 143.542 -166.137 -0 -36.2362 -29.995 54.8859 6.62613 -5.90079 128.885 166.449 -179.782 39.9686 -0.192301 -3.6914 0.155696 0 0 40.4786 4.58033 15.9848 116.677 151.163 179.76 32.6089 0.0515903 -5.76251 0.524873 0 0
 -145.251 79.2679 -290.362 12.2427 -144.607 0.461081 180 -179.998 176.233 168.604 -179.997 173.721 168.149 -179.991 173.721 171.039 -179.998 176.233 179.384 179.986 178.744 9.06249 -1.88925 5.22436 2.76648 -9.64503 1.14809 1.39556 -25.5181 3.03071 152.944 -126.317 -169.883 118.469 -138.425 126.714 -0 1.89528 -2.06785 1.01232 10.0793 -2.0995 15.4499 24.2285 -38.6699 160.596 142.029 -166.088 -0 -35.4881 -29.325 56.4956 7.08834 -5.782 126.037 164.183 179.865 40.0986 -0.214434 -4.52057 0.173793 0 0 37.9675 3.58277 17.2447 115.479 149.72 179.994 35.4786 0.0211087 -6.14851 0.523486 0 0
 -144.255 78.1083 -290.207 12.2203 -143.969 0.839539 179.999 -179.983 176.167 168.45 -179.966 173.612 168.018 -179.899 173.612 171.027 -179.983 176.167 179.127 179.981 178.723 8.48221 -1.91202 4.84027 2.58273 -9.13494 1.02947 1.23171 -24.3064 2.67219 161.908 -125.266 -160.384 115.851 -137.489 123.234 -0 3.06001 -3.23039 0.92981 9.20132 -1.91885 15.0765 23.9196 -40.3845 160.769 140.522 -165.765 -0 -34.6377 -28.5904 57.9166 7.07397 -5.77338 123.415 162.161 179.952 41.0491 -0.249484 -5.36502 0.193561 0 0 37.4236 2.42755 19.199 114.524 148.951 179.602 38.6855 -0.0402172 -6.53793 0.523538 0 0
 -144.836 77.6385 -290.189 11.5608 -142.006 0.534853 179.999 -179.989 176.064 168.29 -179.978 173.439 167.863 -179.934 173.439 170.93 -179.989 176.064 179.048 179.978 178.688 8.44323 -2.22079 4.10923 2.55781 -8.67069 0.816166 1.46109 -21.7353 3.1594 171.095 -125.885 -147.909 113.331 -136.738 119.41 -0 4.23549 -4.29574 0.986005 8.38676 -2.02516 14.7455 23.9654 -42.3586 160.919 139.008 -165.529 -0 -33.9355 -27.9316 58.9892 7.0733 -5.57467 122.438 160.235 -179.982 40.5565 -0.0956087 -6.17353 0.212211 0 0 37.29 0.524907 20.3089 113.428 148.534 179.264 39.6908 -0.013325 -6.9196 0.528328 0 0
 -145.034 77.1123 -290.082 11.2253 -140.845 0.00545476 180 -179.994 176.039 168.162 -179.987 173.398 167.654 -179.962 173.398 170.594 -179.994 176.039 179.589 179.991 178.68 10.1077 -2.00653 3.97804 3.06093 -8.26636 0.850316 1.52445 -20.3981 3.28807 179.977 -127.059 -135.188 111.223 -136.18 116.546 -0 5.38503 -5.58192 1.04808 7.59021 -2.14221 14.6598 24.0951 -43.6973 160.904 137.813 -165.055 -0 -33.3847 -27.1749 59.6469 7.02122 -5.15995 121.62 158.588 179.969 40.3174 -0.0677508 -6.83859 0.231164 0 0 37.4976 -1.04011 21.4079 111.355 148.548 179.5 40.1177 0.00462231 -7.10991 0.535083 0 0
 -145.008 76.112 -290.447 12.276 -140.01 0.840502 179.999 -179.99 176.037 168.061 -179.981 173.395 167.507 -179.943 173.395 170.392 -179.99 176.037 179.869 179.997 178.679 10.9917 -1.73363 4.00093 3.32971 -7.93963 0.904663 1.40992 -20.0512 3.0385 8.53362 -51.191 56.629 108.667 -135.589 113.167 -0 6.32893 -7.07169 1.21146 7.60021 -2.47654 15.6418 25.0691 -45.229 160.424 135.765 -164.295 -0 -32.9194 -26.3209 60.6925 6.92844 -4.73855 121.452 157.102 179.996 40.8855 0.0372363 -7.4723 0.25167 0 0 38.2151 -1.87494 22.4158 108.715 148.923 179.882 40.2996 0.0135747 -7.03376 0.54892 0 0
 -143.924 75.691 -290.733 13.5889 -140.287 1.51428 179.999 -179.992 176.024 167.937 -179.983 173.373 167.354 -179.95 173.373 170.222 -179.992 176.024 0.0311689 -0.000721168 -1.32544 11.5546 -1.34154 4.14521 3.50349 -7.59283 0.991341 1.3502 -19.6648 2.90708 13.9785 -48.5802 65.286 106.748 -135.31 110.615 -0 7.14177 -8.36592 1.32291 7.26368 -2.69883 16.6519 25.8209 -46.2349 159.855 134.156 -163.447 -0 -32.5379 -25.4577 61.8652 6.99971 -4.0184 120.832 155.861 179.887 40.7878 -0.00206233 -8.06032 0.273311 0 0 39.8088 -2.29526 23.7743 107.75 149.336 -179.783 40.1052 0.0400072 -6.89281 0.559324 0 0
 -143.334 75.3734 -291.243 14.5911 -140.834 1.65539 179.999 -179.989 176.069 167.822 -179.978 173.448 167.187 -179.933 173.448 169.992 -179.989 176.069 0.353243 -0.00808007 -1.31034 12.5518 -0.78005 4.41888 3.81165 -7.22905 1.13861 1.32421 -19.3061 2.8486 17.5664 -45.6862 71.7968 104.979 -135.13 108.245 -0 7.80903 -9.41854 1.32094 6.67219 -2.68447 16.9009 26.185 -47.2533 159.351 132.673 -162.84 -0 -32.1496 -24.7711 62.9659 7.28455 -3.35749 120.33 154.638 179.983 40.4771 -1.0351e-05 -8.63784 0.296492 0 0 41.8583 -2.22429 25.1965 107.398 149.812 -179.724 39.9685 0.11029 -6.72009 0.569025 0 0
 -143.184 74.8701 -291.61 15.4018 -141.414 1.43879 179.999 -179.986 176.146 167.744 -179.973 173.577 167.024 -179.919 173.577 169.689 -179.986 176.146 0.910994 -0.0204286 -1.2845 14.1314 0.376454 5.33642 4.31394 -7.04464 1.53084 1.3069 -18.5691 2.80598 18.8842 -42.2788 75.4506 102.943 -134.933 105.483 -0 8.41394 -10.1503 1.17803 6.58362 -2.39239 17.6084 27.4103 -48.4926 158.593 129.789 -161.53 -0 -31.7766 -24.3926 64.0363 6.62383 -2.32062 119.761 153.624 179.779 40.2113 0.0730394 -9.25212 0.3198 0 0 43.2058 -1.28437 26.2088 106.741 151.066 -179.913 40.1148 0.115499 -6.09332 0.584133 0 0
 -142.642 74.4689 -291.866 16.1701 -141.911 1.24615 180 -179.995 176.229 167.594 -179.989 173.715 166.827 -179.967 173.715 169.435 -179.995 176.229 1.21839 -0.0267314 -1.25668 15.065 1.38741 6.08194 4.62079 -6.85248 1.85094 1.40502 -17.9088 3.01123 19.1319 -38.9159 78.1146 101.223 -134.882 103.155 -0 8.88387 -10.8393 1.05511 6.15951 -2.13651 18.261 28.3813 -49.37 157.806 127.249 -160.196 -0 -31.3952 -24.0441 65.0325 6.0146 -1.34332 119.29 152.703 179.849 40.1503 0.122087 -9.86651 0.3442 0 0 45.0751 -0.318399 27.3006 106.252 152.377 179.822 40.0457 0.0959045 -5.559 0.597072 0 0
